<?xml version="1.0" encoding="utf-8"?>
<!-- Generator: Adobe Illustrator 21.1.0, SVG Export Plug-In . SVG Version: 6.00 Build 0)  -->
<!DOCTYPE svg PUBLIC "-//W3C//DTD SVG 1.1//EN" "http://www.w3.org/Graphics/SVG/1.1/DTD/svg11.dtd">
<svg version="1.1" id="レイヤー_1" xmlns="http://www.w3.org/2000/svg" xmlns:xlink="http://www.w3.org/1999/xlink" x="0px"
	 y="0px" viewBox="0 0 2304 3168" style="enable-background:new 0 0 2304 3168;" xml:space="preserve">
<style type="text/css">
	.st0{fill:#FFFFFF;}
</style>
<path class="st0" d="M2085.8,848.4H225.7C101.5,848.4,0,946.2,0,1070.3v1022.3c0,124.1,101.5,229.4,225.7,229.4h510.3
	c85.8,0,160.7-60.1,181.9-143.2l117.4-461.4l0.1-0.4c16.1-53.5,65.5-93.2,124.1-93.2c58.4,0,107.8,39.5,124,92.9l0.2-0.1
	l117.4,462.3c21.2,83.2,96.1,143.2,181.9,143.2h502.8c120.5,0,218.2-101.4,218.2-221.9V1062.8C2304,942.3,2206.3,848.4,2085.8,848.4
	z M881,1593.3c-7.5,119.1-104.2,215.8-223.3,223.3c-144.5,9.1-263.6-110-254.4-254.4c7.5-119.1,104.2-215.8,223.3-223.3
	C771,1329.7,890.1,1448.8,881,1593.3z M1983.1,1593.3c-7.5,119.1-104.2,215.8-223.3,223.3c-144.5,9.1-263.6-110-254.4-254.4
	c7.5-119.1,104.2-215.8,223.3-223.3C1873.1,1329.7,1992.2,1448.8,1983.1,1593.3z"/>
</svg>
