<?xml version="1.0" encoding="utf-8"?>
<!-- Generator: Adobe Illustrator 21.1.0, SVG Export Plug-In . SVG Version: 6.00 Build 0)  -->
<!DOCTYPE svg PUBLIC "-//W3C//DTD SVG 1.1//EN" "http://www.w3.org/Graphics/SVG/1.1/DTD/svg11.dtd">
<svg version="1.1" id="レイヤー_1" xmlns="http://www.w3.org/2000/svg" xmlns:xlink="http://www.w3.org/1999/xlink" x="0px"
	 y="0px" viewBox="0 0 2304 3168" style="enable-background:new 0 0 2304 3168;" xml:space="preserve">
<style type="text/css">
	.st0{fill:#FAFFFD;}
</style>
<g>
	<g>
		<path class="st0" d="M1323.8,1584l944.6-944.6c47.5-47.5,47.5-124.3,0-171.8c-47.5-47.5-124.3-47.5-171.7,0L1152,1412.2
			L207.4,467.6c-47.5-47.5-124.3-47.5-171.8,0c-47.5,47.5-47.5,124.3,0,171.8L980.2,1584L35.6,2528.6c-47.5,47.5-47.5,124.3,0,171.7
			c47.5,47.5,124.3,47.5,171.8,0l944.6-944.6l944.7,944.6c47.5,47.5,124.3,47.5,171.7,0c47.5-47.5,47.5-124.3,0-171.7L1323.8,1584z"
			/>
	</g>
</g>
</svg>
