<?xml version="1.0" encoding="UTF-8" standalone="no"?>
<!DOCTYPE svg PUBLIC "-//W3C//DTD SVG 1.1//EN" "http://www.w3.org/Graphics/SVG/1.1/DTD/svg11.dtd">
<svg width="100%" height="100%" viewBox="0 0 345 439" version="1.1" xmlns="http://www.w3.org/2000/svg" xmlns:xlink="http://www.w3.org/1999/xlink" xml:space="preserve" style="fill-rule:evenodd;clip-rule:evenodd;stroke-linejoin:round;stroke-miterlimit:1.41421;">
    <g transform="matrix(4.16667,0,0,4.16667,-3279.08,-1038.91)">
        <path d="M820.952,351.673C819.193,351.673 817.768,350.248 817.768,348.488C817.768,346.729 819.193,345.303 820.952,345.303C822.712,345.303 824.139,346.729 824.139,348.488C824.139,350.248 822.712,351.673 820.952,351.673ZM847.415,324.977L847.221,324.73L847.221,342.071L794.687,342.071L794.687,269.547L829.498,269.547L829.498,261.559L793.831,261.559C790.046,261.559 786.979,264.622 786.979,268.41L786.979,347.779C786.979,351.566 790.046,354.63 793.831,354.63L848.075,354.63C851.862,354.63 854.928,351.566 854.928,347.779L854.928,315.419L847.415,324.977Z" style="fill:white;fill-rule:nonzero;"/>
    </g>
    <g transform="matrix(4.16667,0,0,4.16667,-3279.08,-1038.91)">
        <path d="M859.061,286.465L859.061,249.339L835.769,249.339L835.769,286.465L825.119,286.465L847.415,314.831L869.711,286.465L859.061,286.465Z" style="fill:white;fill-rule:nonzero;"/>
    </g>
</svg>
