<?xml version="1.0" encoding="UTF-8" standalone="no"?><!DOCTYPE svg PUBLIC "-//W3C//DTD SVG 1.1//EN" "http://www.w3.org/Graphics/SVG/1.1/DTD/svg11.dtd"><svg width="100%" height="100%" viewBox="0 0 249 249" version="1.1" xmlns="http://www.w3.org/2000/svg" xmlns:xlink="http://www.w3.org/1999/xlink" xml:space="preserve" style="fill-rule:evenodd;clip-rule:evenodd;stroke-linejoin:round;stroke-miterlimit:1.41421;"><path d="M19.816,198.666c0,1.212 -0.985,2.193 -2.194,2.193c-1.21,0 -2.194,-0.981 -2.194,-2.193l0,-36.082c0,-1.209 0.984,-2.19 2.194,-2.19c1.209,0 2.194,0.981 2.194,2.19l0,36.082Zm92.012,45.196c-1.212,-1.606 -2.259,-3.343 -3.109,-5.19c-0.222,-0.481 -0.431,-0.969 -0.625,-1.463c-0.191,-0.481 -0.372,-0.965 -0.535,-1.462l-73.128,0l0,-110.244l71.7,0l0,-1.459l0,-1.463l0,-5.194l0,-2.484l0,-2.484l-84.25,0c-12.065,0 -21.881,9.815 -21.881,21.884l0,92.647c0,12.066 9.816,21.881 21.881,21.881l94.719,0c-0.947,-0.765 -1.834,-1.603 -2.672,-2.484c-0.75,-0.784 -1.447,-1.616 -2.1,-2.485Z" style="fill:#fff;fill-rule:nonzero;"/><path d="M235.744,117.028l0,94.994l-20.8,0l-1.463,0l-1.462,0l-86.519,0l0,-86.519l0,-1.459l0,-1.463l0,-5.194l0,-2.484l0,-2.484l0,-77.985l110.244,0l0,82.594Zm-75.356,-99.403c0,-1.209 0.984,-2.194 2.193,-2.194l36.081,0c1.21,0 2.191,0.985 2.191,2.194c0,1.209 -0.981,2.194 -2.191,2.194l-36.081,0c-1.209,0 -2.193,-0.985 -2.193,-2.194Zm13.84,219.584c-0.519,-0.44 -0.99,-0.925 -1.409,-1.462c-1.325,-1.688 -2.147,-3.788 -2.147,-6.1c0,-5.497 4.456,-9.95 9.95,-9.95c5.497,0 9.95,4.453 9.95,9.95c0,2.312 -0.822,4.412 -2.144,6.1c-0.422,0.537 -0.891,1.022 -1.409,1.462c-0.688,0.582 -1.435,1.082 -2.263,1.463c-1.262,0.578 -2.653,0.922 -4.134,0.922c-1.478,0 -2.872,-0.344 -4.134,-0.922c-0.825,-0.381 -1.576,-0.881 -2.26,-1.463Zm52.719,-237.209l-92.647,0c-12.066,0 -21.881,9.819 -21.881,21.884l0,205.066c0,3.131 0.672,6.103 1.862,8.797c0.219,0.497 0.45,0.984 0.703,1.462c0.269,0.5 0.563,0.985 0.869,1.463c1.25,1.959 2.788,3.719 4.581,5.19c1.163,0.957 2.432,1.782 3.775,2.485c3.022,1.578 6.45,2.484 10.091,2.484l92.647,0c12.066,0 21.881,-9.815 21.881,-21.881l0,-92.647l0,-112.419c0,-12.065 -9.815,-21.884 -21.881,-21.884Z" style="fill:#fff;fill-rule:nonzero;"/><path d="M94.472,24.972l-6.556,0.603c-15.219,1.969 -29.438,8.928 -40.372,19.863c-10.935,10.934 -17.894,25.15 -19.86,40.371l11.682,-9.39c1.05,-0.844 2.587,-0.694 3.453,0.343c0.884,1.06 0.734,2.638 -0.338,3.51l-16.194,13.184c-0.89,0.725 -2.212,0.535 -2.859,-0.415l-11.872,-17.388c-0.747,-1.097 -0.487,-2.59 0.588,-3.366c1.131,-0.818 2.712,-0.528 3.481,0.635l7.325,11.112c2.3,-15.868 9.672,-30.656 21.103,-42.09c11.435,-11.431 26.222,-18.8 42.088,-21.103l7.412,-0.61c1.809,1.235 2.3,3.041 0.919,4.741Z" style="fill:#fff;fill-rule:nonzero;"/></svg>