<?xml version="1.0" encoding="UTF-8" standalone="no"?><!DOCTYPE svg PUBLIC "-//W3C//DTD SVG 1.1//EN" "http://www.w3.org/Graphics/SVG/1.1/DTD/svg11.dtd"><svg width="100%" height="100%" viewBox="0 0 57 57" version="1.1" xmlns="http://www.w3.org/2000/svg" xmlns:xlink="http://www.w3.org/1999/xlink" xml:space="preserve" style="fill-rule:evenodd;clip-rule:evenodd;stroke-linejoin:round;stroke-miterlimit:1.41421;"><path d="M56.69,28.349c0,6.858 -2.473,13.715 -7.419,19.12l3.483,3.485c0.5,0.499 0.5,1.309 0,1.809c-0.499,0.498 -1.31,0.498 -1.809,0l-3.483,-3.485c-5.406,4.946 -12.263,7.42 -19.12,7.42c-15.656,0 -28.342,-12.693 -28.342,-28.349c0,-6.86 2.471,-13.719 7.412,-19.12l-3.484,-3.484c-0.499,-0.499 -0.499,-1.309 0,-1.809c0.499,-0.499 1.31,-0.499 1.809,0l3.484,3.485c5.406,-4.947 12.264,-7.421 19.121,-7.421c15.662,0 28.348,12.689 28.348,28.349ZM45.047,46.864l-2.28,-2.28c-1.876,0.774 -4.73,0.1 -8.032,-1.73c-1.847,-1.023 -3.894,-2.418 -6.02,-4.11c-3.485,3.073 -6.834,5.615 -9.732,7.43c-1.838,1.15 -3.541,2.007 -5.049,2.533c4.302,3.052 9.355,4.579 14.408,4.579c5.983,0 11.969,-2.141 16.705,-6.422ZM39.542,41.359l-6.571,-6.572c-0.57,0.558 -1.139,1.103 -1.707,1.637c1.816,1.418 3.554,2.588 5.123,3.458c1.237,0.685 2.309,1.19 3.155,1.477ZM30.559,32.375l-6.244,-6.243c-0.634,0.648 -1.252,1.296 -1.853,1.939c1.875,2.133 4.025,4.283 6.158,6.158c0.643,-0.601 1.29,-1.219 1.939,-1.854ZM21.904,23.72l-6.572,-6.571c0.288,0.846 0.792,1.918 1.477,3.153c0.87,1.57 2.039,3.309 3.458,5.125c0.533,-0.567 1.079,-1.137 1.637,-1.707ZM3.398,28.349c0,5.052 1.533,10.106 4.586,14.407c0.526,-1.508 1.384,-3.211 2.533,-5.049c1.815,-2.899 4.357,-6.247 7.43,-9.732c-1.694,-2.125 -3.086,-4.174 -4.109,-6.019c-1.831,-3.303 -2.505,-6.155 -1.731,-8.032l-2.28,-2.28c-4.286,4.741 -6.429,10.724 -6.429,16.705ZM11.636,9.834l2.28,2.28c1.877,-0.775 4.731,-0.1 8.035,1.733c1.848,1.023 3.895,2.415 6.019,4.106c3.484,-3.074 6.832,-5.615 9.731,-7.43c1.836,-1.149 3.541,-2.006 5.048,-2.533c-4.302,-3.051 -9.354,-4.578 -14.407,-4.578c-5.984,0 -11.969,2.141 -16.706,6.422ZM17.141,15.339l6.572,6.572c0.569,-0.557 1.138,-1.102 1.705,-1.635c-1.818,-1.42 -3.554,-2.59 -5.12,-3.458c-1.237,-0.685 -2.311,-1.191 -3.157,-1.479ZM26.124,24.323l6.247,6.246c0.632,-0.648 1.251,-1.294 1.85,-1.936c-1.907,-2.169 -3.992,-4.254 -6.16,-6.161c-0.642,0.599 -1.29,1.217 -1.937,1.851ZM34.777,32.975l6.573,6.575c-0.287,-0.846 -0.791,-1.92 -1.476,-3.156c-0.87,-1.568 -2.04,-3.306 -3.462,-5.124c-0.533,0.566 -1.078,1.135 -1.635,1.705ZM53.279,28.349c0,-5.05 -1.523,-10.104 -4.58,-14.409c-0.525,1.508 -1.382,3.211 -2.532,5.049c-1.811,2.893 -4.353,6.24 -7.431,9.729c1.691,2.124 3.083,4.174 4.109,6.022c1.831,3.304 2.505,6.157 1.731,8.034l2.28,2.281c4.281,-4.736 6.423,-10.722 6.423,-16.706ZM36.521,26.087c2.808,-3.21 5.118,-6.263 6.768,-8.898c2.178,-3.481 3.245,-5.913 2.685,-6.473c-0.559,-0.56 -2.994,0.508 -6.474,2.687c-2.63,1.646 -5.682,3.957 -8.895,6.768c2.079,1.848 4.07,3.838 5.916,5.916ZM10.709,45.982c0.852,0.851 5.733,-2.222 6.475,-2.687c2.63,-1.647 5.683,-3.958 8.897,-6.771c-2.092,-1.858 -4.056,-3.822 -5.914,-5.914c-2.813,3.214 -5.124,6.265 -6.771,8.896c-0.464,0.741 -3.539,5.625 -2.687,6.476Z" style="fill:#fff;"/></svg>