<?xml version="1.0" encoding="UTF-8" standalone="no"?><!DOCTYPE svg PUBLIC "-//W3C//DTD SVG 1.1//EN" "http://www.w3.org/Graphics/SVG/1.1/DTD/svg11.dtd"><svg width="100%" height="100%" viewBox="0 0 1801 2538" version="1.1" xmlns="http://www.w3.org/2000/svg" xmlns:xlink="http://www.w3.org/1999/xlink" xml:space="preserve" style="fill-rule:evenodd;clip-rule:evenodd;stroke-linejoin:round;stroke-miterlimit:1.41421;"><path d="M1704.32,1567.41c-0.903,11.885 -1.831,24.613 -2.816,38.113c-10.297,141.244 -27.528,377.644 -90.403,610.678c-34.622,128.309 -228.109,227.828 -371.462,227.828l-353.385,0c-95.287,0 -185.756,-47.797 -242.012,-127.853c-85.435,-121.587 -490.753,-556.787 -507.966,-575.253c-0.609,-0.656 -1.241,-1.291 -1.887,-1.91c-25.482,-24.378 -39.903,-57.362 -40.607,-92.875c-0.706,-35.609 12.457,-69.253 37.063,-94.731c25.369,-26.272 59.7,-40.74 96.669,-40.74c34.115,0 66.343,12.565 90.978,35.428l201.115,231.903c12.819,14.781 33.469,20.047 51.804,13.203c18.331,-6.841 30.484,-24.347 30.484,-43.916l0,-1116.67c0,-59.522 46.041,-107.943 102.631,-107.943c56.591,0 102.631,48.421 102.631,107.943l0,950.31c0,25.887 20.988,46.875 46.875,46.875c25.888,0 46.875,-20.988 46.875,-46.875l0,-432.594c0,-59.519 46.038,-107.941 102.629,-107.941c56.59,0 102.631,48.422 102.631,107.941l0,432.594c0,25.887 20.987,46.875 46.875,46.875c25.887,0 46.875,-20.988 46.875,-46.875l0,-372.856c0,-59.519 46.037,-107.944 102.628,-107.944c56.591,0 102.631,48.425 102.631,107.944l0,372.856c0,25.887 20.988,46.875 46.875,46.875c25.888,0 46.875,-20.988 46.875,-46.875l0,-289.225c0,-59.522 46.041,-107.944 102.628,-107.944c56.591,0 102.632,48.422 102.632,107.944c0,0.394 0.006,0.787 0.015,1.181c0.053,2.072 5.169,208.066 0.119,274.534ZM1797.93,1291.07c-0.322,-110.934 -88.294,-201.075 -196.382,-201.075c-44.147,0 -84.937,15.037 -117.772,40.391c-29.674,-72.769 -99.74,-124.022 -181.237,-124.022c-47.828,0 -91.713,17.65 -125.812,46.943c-33.129,-63.434 -98.341,-106.678 -173.197,-106.678c-37.594,0 -72.744,10.897 -102.629,29.791l0,-345.816c0,-111.215 -88.096,-201.693 -196.381,-201.693c-108.284,0 -196.381,90.478 -196.381,201.693l0,991.082l-120.369,-138.797c-0.953,-1.1 -1.959,-2.153 -3.009,-3.163c-42.347,-40.506 -98.194,-62.815 -157.253,-62.815c-62.628,0 -120.91,24.634 -164.107,69.365c-42.062,43.553 -64.562,100.985 -63.356,161.713c1.191,60.156 25.503,116.125 68.503,157.769c21.294,22.875 419.025,450.525 498.982,564.312c73.787,105.013 192.937,167.691 318.718,167.691l353.385,0c86.415,0 189.059,-29.672 274.569,-79.397c98.403,-57.219 164.956,-134.55 187.406,-217.75c65.212,-241.691 82.853,-483.691 93.393,-628.278c0.979,-13.403 1.897,-26.035 2.794,-37.828c5.319,-70.01 0.497,-268.847 0.135,-283.438Z" style="fill:#fff;fill-rule:nonzero;"/><path d="M932.152,908.428l0,18.697c19.922,-6.741 40.747,-10.637 61.897,-11.537c72.332,-72.763 117.094,-172.96 117.094,-283.419c0,-221.794 -180.441,-402.234 -402.234,-402.234c-221.791,0 -402.235,180.44 -402.235,402.234c0,135.45 67.303,255.469 170.219,328.394l0,-59.45c-75.491,-65.213 -123.344,-161.594 -123.344,-268.944c0,-195.947 159.416,-355.359 355.36,-355.359c195.947,0 355.359,159.412 355.359,355.359c0,111.447 -51.584,211.059 -132.116,276.259Z" style="fill:#fff;fill-rule:nonzero;"/><path d="M476.893,1220.23l0,-50.774c-207.644,-90.01 -353.278,-296.947 -353.278,-537.291c0,-322.734 262.562,-585.294 585.294,-585.294c322.731,0 585.293,262.56 585.293,585.294c0,135.015 -45.978,259.484 -123.065,358.619c5.022,5.6 9.812,11.459 14.315,17.59c14.719,-9.047 30.382,-16.318 46.641,-21.747c68.756,-101.159 108.984,-223.2 108.984,-354.462c0,-348.581 -283.587,-632.169 -632.168,-632.169c-348.578,0 -632.169,283.588 -632.169,632.169c0,266.709 166.025,495.369 400.153,588.065Z" style="fill:#fff;fill-rule:nonzero;"/></svg>