<?xml version="1.0" encoding="utf-8"?>
<!-- Generator: Adobe Illustrator 21.1.0, SVG Export Plug-In . SVG Version: 6.00 Build 0)  -->
<!DOCTYPE svg PUBLIC "-//W3C//DTD SVG 1.1//EN" "http://www.w3.org/Graphics/SVG/1.1/DTD/svg11.dtd">
<svg version="1.1" xmlns="http://www.w3.org/2000/svg" xmlns:xlink="http://www.w3.org/1999/xlink" x="0px" y="0px"
	 viewBox="0 0 1984.2 1984.2" style="enable-background:new 0 0 1984.2 1984.2;" xml:space="preserve">
<style type="text/css">
	.st0{fill:#FFFFFF;}
</style>
<g id="レイヤー_1">
	<path class="st0" d="M1671,552.5l65.8,276.4l-60.5,14.4l-4.3,1l-4.3,1l-251.7,59.9l-59.9-251.7l-1-4.2l-1-4.3l-3.6-15.1l-1.7-7.2
		l-1.7-7.2l-54-226.9l320.7-76.3L1671,552.5L1671,552.5z M1383,315.5c-0.8-3.5,1.3-7.1,4.9-7.9l105-25c3.5-0.8,7.1,1.3,7.9,4.9
		s-1.3,7.1-4.9,7.9l-105,25C1387.3,321.2,1383.8,319,1383,315.5z M1575.3,944.7c-1.8-0.9-3.5-2-5.1-3.3c-5-4-8.9-9.5-10.5-16.3
		c-3.8-16,6.1-32,22.1-35.8c16-3.8,32,6.1,35.8,22.1c1.6,6.7,0.7,13.4-2,19.2c-0.9,1.9-1.9,3.6-3.1,5.2c-1.6,2.2-3.4,4.1-5.6,5.8
		c-3.3,2.6-7.1,4.5-11.4,5.5c-4.3,1-8.6,1-12.7,0.2C1580.2,946.9,1577.7,945.9,1575.3,944.7z M1564.4,218.1l-269.5,64.2
		c-35.1,8.4-56.9,43.7-48.5,78.8l142,596.6c2.2,9.1,6.2,17.3,11.5,24.3c1,1.3,2,2.6,3.1,3.8c1.1,1.3,2.3,2.5,3.5,3.7
		c5,4.8,10.7,8.9,16.9,11.9c4,2,8.3,3.5,12.7,4.6c9.9,2.5,20.5,2.8,31.1,0.2l269.5-64.2c35.1-8.4,56.9-43.7,48.5-78.8L1721,593.7
		l-77.8-327C1634.8,231.6,1599.5,209.8,1564.4,218.1L1564.4,218.1z"/>
	<path class="st0" d="M1286.8,748.8l-31.3,7.2c-72.3,19.7-136.4,65.1-182,129.4c-45.6,64.3-69.7,143.4-69,224.7l50.2-56.6
		c4.5-5.1,12.1-5.2,16.9-0.3c5,5,5.3,13.4,0.7,18.7l-69.5,79.4c-3.8,4.4-10.3,4.2-14.1-0.4l-69.1-84.2c-4.3-5.3-4.1-13.3,0.6-18.1
		c4.9-5,12.8-4.5,17.3,1.2l42.9,54c0.5-84.9,26.2-167.3,73.9-234.5c47.7-67.2,114.3-115.1,189.5-137l35.5-7.8
		C1288.7,729.8,1292.3,739,1286.8,748.8L1286.8,748.8z"/>
	<path class="st0" d="M957.8,1231.1l433.7-1.2l0.2,89.9l0,6.3l0,6.3l1,374.1l-395,1.1l-6.7,0l-6.7,0l-23.7,0.1l-11.3,0l-11.3,0
		l-356,1l-1.3-476.7L957.8,1231.1L957.8,1231.1z M504.8,1558.1c-5.5,0-10-4.2-10-9.5l-0.4-156c0-5.2,4.5-9.5,10-9.5
		c5.5,0,10,4.2,10,9.4l0.4,156C514.8,1553.8,510.3,1558.1,504.8,1558.1z M1507.2,1495.6c-2,2.2-4.2,4.3-6.7,6.1
		c-7.7,5.8-17.3,9.3-27.8,9.4c-25.1,0.1-45.5-19.1-45.5-42.9c-0.1-23.8,20.2-43.1,45.3-43.1c10.6,0,20.2,3.5,27.9,9.2
		c2.5,1.8,4.7,3.8,6.7,6.1c2.7,3,5,6.2,6.7,9.8c2.7,5.4,4.2,11.5,4.3,17.9c0,6.4-1.5,12.4-4.2,17.9
		C1512.1,1489.4,1509.8,1492.6,1507.2,1495.6z M423.6,1270.5l1.1,400.6c0.1,52.2,45.1,94.5,100.2,94.3l936.2-2.5
		c14.3,0,27.9-3,40.1-8.2c2.3-1,4.5-2,6.7-3.1c2.3-1.2,4.5-2.4,6.7-3.8c8.9-5.4,16.9-12.1,23.6-19.9c4.4-5,8.1-10.5,11.3-16.4
		c7.2-13.1,11.3-27.9,11.2-43.7l-1.1-400.6c-0.1-52.2-45.1-94.5-100.2-94.3l-423,1.1l-513.3,1.4
		C468.1,1175.8,423.4,1218.4,423.6,1270.5L423.6,1270.5z"/>
</g>
<g id="レイヤー_2">
	<g>
		<path class="st0" d="M571,146.6V53h48.2c8.9,0,15.8,0.8,20.5,2.3c4.7,1.5,8.5,4.4,11.4,8.5c2.9,4.1,4.3,9.2,4.3,15.2
			c0,5.2-1.1,9.7-3.3,13.4c-2.2,3.8-5.3,6.8-9.1,9.2c-2.5,1.5-5.9,2.7-10.1,3.7c3.4,1.2,6,2.3,7.5,3.4c1.1,0.8,2.6,2.4,4.6,4.9
			c2,2.5,3.4,4.4,4,5.8l14,27.1h-32.7L614.8,118c-2-3.7-3.7-6.1-5.2-7.2c-2.1-1.4-4.4-2.2-7.1-2.2H600v38H571z M600,90.9h12.2
			c1.3,0,3.9-0.4,7.7-1.3c1.9-0.4,3.5-1.4,4.7-2.9c1.2-1.6,1.8-3.4,1.8-5.4c0-3-1-5.3-2.9-7c-1.9-1.6-5.5-2.4-10.8-2.4H600V90.9z"/>
		<path class="st0" d="M663.9,112.9c0-10.3,3.5-18.9,10.5-25.6c7-6.7,16.4-10,28.3-10c13.6,0,23.8,3.9,30.7,11.8
			c5.6,6.3,8.4,14.1,8.4,23.4c0,10.4-3.5,19-10.4,25.6c-6.9,6.7-16.5,10-28.7,10c-10.9,0-19.7-2.8-26.4-8.3
			C668,133,663.9,124,663.9,112.9z M689.9,112.8c0,6,1.2,10.5,3.7,13.4c2.4,2.9,5.5,4.3,9.2,4.3c3.7,0,6.8-1.4,9.2-4.3
			c2.4-2.8,3.6-7.4,3.6-13.7c0-5.9-1.2-10.2-3.6-13.1c-2.4-2.9-5.4-4.3-9-4.3c-3.8,0-6.9,1.5-9.4,4.4
			C691.2,102.4,689.9,106.9,689.9,112.8z"/>
		<path class="st0" d="M785.6,53v25.8h14.3v19h-14.3v24c0,2.9,0.3,4.8,0.8,5.7c0.9,1.4,2.3,2.2,4.5,2.2c1.9,0,4.6-0.6,8-1.7
			l1.9,17.9c-6.4,1.4-12.4,2.1-18,2.1c-6.5,0-11.2-0.8-14.3-2.5s-5.3-4.2-6.8-7.5c-1.5-3.4-2.2-8.8-2.2-16.4V97.8H750v-19h9.6V66.4
			L785.6,53z"/>
		<path class="st0" d="M835.9,100.8l-24.8-2.6c0.9-4.3,2.3-7.8,4.1-10.2c1.8-2.5,4.3-4.6,7.6-6.5c2.4-1.3,5.7-2.3,9.8-3.1
			c4.2-0.7,8.7-1.1,13.5-1.1c7.8,0,14,0.4,18.8,1.3c4.7,0.9,8.7,2.7,11.8,5.5c2.2,1.9,4,4.6,5.2,8.1c1.3,3.5,1.9,6.9,1.9,10v29.9
			c0,3.2,0.2,5.7,0.6,7.5c0.4,1.8,1.3,4.1,2.6,6.9h-24.4c-1-1.7-1.6-3.1-1.9-4c-0.3-0.9-0.6-2.3-0.9-4.3c-3.4,3.3-6.8,5.6-10.1,7
			c-4.6,1.9-9.9,2.8-16,2.8c-8.1,0-14.2-1.9-18.4-5.6c-4.2-3.7-6.3-8.4-6.3-13.8c0-5.1,1.5-9.4,4.5-12.7c3-3.3,8.6-5.8,16.7-7.4
			c9.7-2,16.1-3.3,18.9-4.1c2.9-0.8,6-1.8,9.2-3.1c0-3.2-0.7-5.4-2-6.7c-1.3-1.3-3.6-1.9-7-1.9c-4.3,0-7.4,0.7-9.6,2
			C838.3,95.8,836.9,97.8,835.9,100.8z M858.4,114.4c-3.6,1.3-7.3,2.4-11.2,3.4c-5.3,1.4-8.6,2.8-10,4.1c-1.4,1.4-2.2,3-2.2,4.8
			c0,2,0.7,3.7,2.1,5c1.4,1.3,3.5,1.9,6.3,1.9c2.9,0,5.6-0.7,8.1-2.1c2.5-1.4,4.3-3.1,5.3-5.1c1-2,1.6-4.6,1.6-7.9V114.4z"/>
		<path class="st0" d="M928.5,53v25.8h14.3v19h-14.3v24c0,2.9,0.3,4.8,0.8,5.7c0.9,1.4,2.3,2.2,4.5,2.2c1.9,0,4.6-0.6,8-1.7
			l1.9,17.9c-6.4,1.4-12.4,2.1-18,2.1c-6.5,0-11.2-0.8-14.3-2.5s-5.3-4.2-6.8-7.5c-1.5-3.4-2.2-8.8-2.2-16.4V97.8h-9.6v-19h9.6V66.4
			L928.5,53z"/>
		<path class="st0" d="M1030.3,119.1h-52.1c0.5,4.2,1.6,7.3,3.4,9.3c2.5,2.9,5.8,4.4,9.8,4.4c2.6,0,5-0.6,7.3-1.9
			c1.4-0.8,2.9-2.2,4.5-4.3l25.6,2.4c-3.9,6.8-8.6,11.7-14.2,14.6c-5.5,3-13.5,4.4-23.8,4.4c-9,0-16-1.3-21.2-3.8
			c-5.1-2.5-9.4-6.5-12.8-12.1c-3.4-5.5-5.1-12-5.1-19.4c0-10.6,3.4-19.2,10.2-25.7c6.8-6.5,16.2-9.8,28.1-9.8
			c9.7,0,17.4,1.5,23,4.4c5.6,2.9,9.9,7.2,12.8,12.8c2.9,5.6,4.4,12.8,4.4,21.8V119.1z M1003.9,106.7c-0.5-5-1.9-8.6-4.1-10.8
			s-5.1-3.3-8.6-3.3c-4.1,0-7.4,1.6-9.9,4.9c-1.6,2-2.6,5.1-3,9.1H1003.9z"/>
		<path class="st0" d="M1087.6,53h28.9v70.5h45.1v23h-74V53z"/>
		<path class="st0" d="M1174.7,53h77.4v20h-48.5v14.9h45V107h-45v18.4h49.9v21.2h-78.9V53z"/>
		<path class="st0" d="M1269.2,53h71.5v20.1h-42.4v16.3h36.2v18.9h-36.2v38.2h-29V53z"/>
		<path class="st0" d="M1349.6,53h87.8v23.1H1408v70.4h-28.9V76.1h-29.5V53z"/>
	</g>
	<path class="st0" d="M1232.5,1277.7H748.7c-32.3,0-58.7,25.4-58.7,57.7v265.9c0,32.3,26.4,59.7,58.7,59.7h132.7
		c22.3,0,41.8-15.6,47.3-37.2l30.5-120l0-0.1c4.2-13.9,17-24.2,32.3-24.2c15.2,0,28,10.3,32.3,24.2l0.1,0l30.5,120.2
		c5.5,21.6,25,37.2,47.3,37.2h130.8c31.3,0,56.8-26.4,56.8-57.7v-269.8C1289.2,1302.1,1263.8,1277.7,1232.5,1277.7z M919.1,1471.4
		c-2,31-27.1,56.1-58.1,58.1c-37.6,2.4-68.6-28.6-66.2-66.2c2-31,27.1-56.1,58.1-58.1C890.5,1402.8,921.5,1433.8,919.1,1471.4z
		 M1205.8,1471.4c-2,31-27.1,56.1-58.1,58.1c-37.6,2.4-68.6-28.6-66.2-66.2c2-31,27.1-56.1,58.1-58.1
		C1177.2,1402.8,1208.1,1433.8,1205.8,1471.4z"/>
</g>
</svg>
